<svg width="81" height="81" viewBox="0 0 81 81" fill="none" xmlns="http://www.w3.org/2000/svg">
<path d="M30.5535 68.9116C30.0859 68.5582 29.6568 68.308 29.2004 68.1437C28.7419 67.9839 28.2741 67.8967 27.777 67.8763C26.787 67.831 25.7094 68.0159 24.6784 68.2659C23.6459 68.5194 22.6649 68.8275 21.93 69.0794C21.2004 69.3226 20.7227 69.5112 20.7227 69.5112C20.7227 69.5112 21.19 69.7831 21.939 70.1027C22.689 70.4231 23.728 70.7867 24.8606 70.9827C25.9845 71.1792 27.2139 71.2033 28.2831 70.8971C29.3466 70.5955 30.2519 69.9429 30.5535 68.9116Z" fill="white"/>
<path d="M27.3986 64.3311C27.8004 65.2334 28.3841 66.1156 29.1504 66.6903C29.5312 66.9734 29.9582 67.1893 30.4166 67.2779C30.8729 67.3667 31.361 67.3432 31.8374 67.1416C31.8608 66.062 31.5668 65.2085 31.1049 64.4609C30.6404 63.7175 29.9847 63.0738 29.3047 62.5195C28.6255 61.9685 27.9286 61.5077 27.4051 61.1779C26.8796 60.8489 26.5225 60.6564 26.5225 60.6564C26.5225 60.6564 26.5253 60.7746 26.5459 60.9766C26.5649 61.1779 26.6004 61.4671 26.6565 61.8142C26.7723 62.504 26.9933 63.4303 27.3986 64.3311Z" fill="white"/>
<path d="M19.9723 66.7409C21.0058 66.6903 21.9207 66.2943 22.5633 65.4309C22.0515 64.5131 21.2703 64.017 20.338 63.7284C19.4058 63.4425 18.319 63.3658 17.25 63.3323C16.1833 63.3002 15.1247 63.3243 14.3306 63.3276C13.5145 63.3437 13.0039 63.3509 13.0039 63.3509C13.0039 63.3509 13.1027 63.4611 13.2882 63.6413C13.4715 63.8115 13.7411 64.0647 14.0731 64.3382C14.747 64.8927 15.6968 65.5411 16.7453 66.0143C17.7941 66.4894 18.9382 66.79 19.9723 66.7409Z" fill="white"/>
<path d="M21.9391 62.6598C22.5252 63.4047 23.3448 63.8943 24.364 63.8412C24.7772 62.8492 24.7066 61.9002 24.4254 61.0302C24.1458 60.1621 23.6489 59.3653 23.1474 58.6714C22.6415 57.9771 22.1285 57.3849 21.7503 56.9606C21.5668 56.7471 21.4076 56.5767 21.2948 56.4612C21.1901 56.3418 21.1256 56.2792 21.1256 56.2792C21.1256 56.2792 21.0903 56.3849 21.0383 56.5767C20.9887 56.7692 20.9315 57.0433 20.8781 57.38C20.7678 58.0578 20.7191 58.9841 20.864 59.9551C21.0062 60.9214 21.3519 61.9135 21.9391 62.6598Z" fill="white"/>
<path d="M9.28356 55.2483C8.55111 55.0189 8.07764 54.8836 8.07764 54.8836C8.07764 54.8836 8.12172 55.0042 8.21437 55.2097C8.31315 55.4095 8.46152 55.6956 8.64988 56.0324C8.83968 56.3685 9.06866 56.7587 9.33825 57.1681C9.47152 57.3724 9.61417 57.582 9.76601 57.7928L9.88682 57.9552L10.0352 58.1516C10.1397 58.2826 10.2444 58.413 10.3466 58.5434C11.2023 59.5634 12.2599 60.3424 13.3001 60.6699C14.3401 61.0036 15.3491 60.8965 16.2101 60.2487C15.9693 59.2161 15.3883 58.5132 14.6046 57.8999C14.4132 57.7438 14.1987 57.6034 13.9854 57.4561C13.7705 57.3103 13.5415 57.1716 13.3091 57.0332C13.076 56.8865 12.8381 56.7473 12.5942 56.6079C12.3617 56.4818 12.1358 56.3685 11.8997 56.2577C10.9705 55.8193 10.0146 55.4822 9.28356 55.2483Z" fill="white"/>
<path d="M16.4603 57.0824C16.7368 57.9747 17.3811 58.7071 18.3571 58.9335C19.0399 58.0994 19.2542 57.1877 19.3103 56.3273C19.3591 55.4647 19.2489 54.6485 19.156 53.9632C19.1236 53.6726 19.0073 53.1828 18.8997 52.8C18.7895 52.4047 18.6677 52.0489 18.5571 51.7528C18.4466 51.4532 18.3426 51.2108 18.2705 51.0424C18.2087 50.871 18.1707 50.774 18.1707 50.774C18.1707 50.774 18.0985 50.871 17.9883 51.0449C17.8691 51.2208 17.7293 51.4694 17.5646 51.78C17.2409 52.3992 16.8497 53.2659 16.5791 54.2253C16.5105 54.4667 16.4513 54.7128 16.4028 54.9612C16.3556 55.192 16.3201 55.43 16.2981 55.6716C16.2864 55.9102 16.2954 56.1486 16.3177 56.3894C16.3411 56.6275 16.3966 56.8559 16.4603 57.0824Z" fill="white"/>
<path d="M8.16151 51.6276C8.33029 51.835 8.52723 52.0168 8.73009 52.1882C8.92907 52.3595 9.13437 52.514 9.34927 52.6517C10.2011 53.1991 11.1483 53.4286 12.1795 53.1276C12.2656 52.6125 12.2281 52.1417 12.0923 51.7048C12.0246 51.4893 11.9319 51.2795 11.8156 51.077C11.7054 50.8737 11.5627 50.6837 11.4319 50.4878C10.8778 49.7178 10.0227 49.0525 9.16152 48.4601C8.32417 47.8607 7.44294 47.3448 6.76967 46.9715C6.0813 46.6021 5.646 46.3713 5.646 46.3713C5.646 46.3713 5.66702 46.5025 5.72416 46.7254C5.78334 46.9468 5.876 47.259 6.00375 47.6362C6.25967 48.3835 6.61702 49.3892 7.2111 50.3052C7.49661 50.7668 7.8158 51.2209 8.16151 51.6276Z" fill="white"/>
<path d="M13.7338 51.2242C13.9336 51.6291 14.2297 51.9877 14.637 52.2759C15.5719 51.7393 16.1091 50.9367 16.3911 50.0665C16.4634 49.8481 16.5162 49.624 16.5589 49.3983C16.5795 49.2875 16.5968 49.1732 16.6119 49.061C16.6264 48.9463 16.6456 48.832 16.6632 48.7159C16.7221 48.2538 16.7372 47.7934 16.7221 47.3516C16.6632 46.4699 16.6119 45.6383 16.4983 45.0336C16.4487 44.732 16.3911 44.484 16.3529 44.3118C16.3238 44.1377 16.3064 44.0418 16.3064 44.0418C16.3064 44.0418 16.2193 44.1208 16.0768 44.2665C15.9266 44.4128 15.7397 44.6228 15.5217 44.8904C15.084 45.4275 14.5383 46.1944 14.0954 47.0853C13.6746 47.9648 13.4042 48.9597 13.4103 49.9053C13.4076 50.1446 13.4452 50.3706 13.5019 50.5895C13.5554 50.8106 13.6342 51.023 13.7338 51.2242Z" fill="white"/>
<path d="M6.36708 43.1373C6.49789 43.3742 6.63606 43.6038 6.7934 43.8171C6.95667 44.0261 7.133 44.2214 7.31442 44.3993C8.05136 45.1128 8.93831 45.5224 10.0087 45.4214C10.1895 44.9324 10.2442 44.4651 10.1922 44.0132C10.1657 43.7877 10.1144 43.5659 10.0438 43.3463C9.97464 43.1259 9.90096 42.9065 9.79994 42.693C9.60259 42.2601 9.32953 41.8373 9.0128 41.4265C8.84994 41.2226 8.68769 41.0187 8.52728 40.8163C8.36239 40.6163 8.1932 40.4195 8.02136 40.2271C7.32136 39.4554 6.54646 38.7497 6.00993 38.2232C5.45687 37.7001 5.06564 37.3661 5.06564 37.3661C5.06564 37.3661 5.05095 37.8999 5.09809 38.7036C5.12605 39.1038 5.2083 39.5703 5.30095 40.0697C5.34666 40.3197 5.40217 40.5773 5.46544 40.8383C5.52748 41.0969 5.59054 41.3642 5.69218 41.6224C5.88156 42.1438 6.10565 42.6599 6.36708 43.1373Z" fill="white"/>
<path d="M12.5545 44.8493C13.5734 44.4974 14.2563 43.8213 14.7032 43.0442C14.8159 42.8489 14.912 42.6474 14.9973 42.4419C15.0955 42.2356 15.1826 42.0246 15.2573 41.8123C15.4055 41.3874 15.5132 40.9556 15.5834 40.5348C15.6647 40.116 15.7518 39.708 15.7922 39.3309C15.8163 39.1415 15.831 38.9615 15.8445 38.7899C15.8559 38.6189 15.862 38.4576 15.8826 38.3103C15.9486 37.7252 15.9388 37.3395 15.9388 37.3395C15.9388 37.3395 15.5428 37.5574 14.9792 37.9642C14.8394 38.0648 14.6881 38.1795 14.5294 38.3044C14.3692 38.4311 14.2057 38.5678 14.0528 38.7176C13.7383 39.0138 13.4132 39.3564 13.1061 39.7331C12.9518 39.9219 12.8053 40.1195 12.6616 40.3244C12.5941 40.4274 12.5249 40.5334 12.4604 40.6391C12.4002 40.7442 12.3441 40.8527 12.2924 40.9621C12.081 41.395 11.9171 41.8493 11.8279 42.3097C11.7894 42.5372 11.7573 42.7681 11.7628 42.993C11.7749 43.217 11.8104 43.4405 11.8685 43.6546C11.9894 44.0874 12.2087 44.4952 12.5545 44.8493Z" fill="white"/>
<path d="M8.84998 31.9573C8.611 31.4979 8.35406 31.051 8.10406 30.6336C7.84508 30.2138 7.61263 29.8357 7.41875 29.5161C7.01692 28.8704 6.72426 28.4498 6.72426 28.4498C6.72426 28.4498 6.57304 28.9579 6.41263 29.7449C6.35202 30.1453 6.29651 30.6136 6.25997 31.1206C6.23936 31.3747 6.22426 31.6361 6.21875 31.9047C6.21875 32.1738 6.2363 32.4508 6.25997 32.7277C6.30793 33.2804 6.37875 33.839 6.52038 34.3665C6.67732 34.8965 6.88365 35.3975 7.14508 35.8304C7.651 36.7037 8.46733 37.3108 9.52794 37.4602C9.66611 37.2443 9.76876 37.0288 9.84651 36.8079C9.92162 36.589 9.99529 36.3679 10.0263 36.1461C10.0996 35.6996 10.0645 35.2408 9.95672 34.7749C9.86692 34.3094 9.72468 33.839 9.52488 33.3655C9.32284 32.8922 9.07651 32.4153 8.84998 31.9573Z" fill="white"/>
<path d="M14.6131 36.0298C14.9354 35.7161 15.2058 35.3631 15.4323 34.9953C15.6821 34.63 15.9062 34.2533 16.0825 33.8741C16.1768 33.6867 16.2458 33.4994 16.3354 33.3173C16.4227 33.1367 16.5017 32.9588 16.5709 32.7863C16.7162 32.4422 16.8174 32.1202 16.9136 31.8451C17.1252 31.3016 17.2132 30.9332 17.2132 30.9332C17.2132 30.9332 16.777 31.039 16.1266 31.283C15.4617 31.522 14.6634 31.9267 13.8691 32.4918C13.6748 32.6326 13.4695 32.7828 13.2942 32.9492C13.1176 33.1106 12.9458 33.2818 12.787 33.4639C12.4723 33.8259 12.1823 34.2202 11.9925 34.6392C11.8131 35.059 11.7119 35.4994 11.7119 35.9426C11.7144 36.1612 11.7325 36.3831 11.8015 36.602C11.8768 36.8208 11.9733 37.0388 12.1086 37.2498C13.184 37.149 13.9548 36.6541 14.6131 36.0298Z" fill="white"/>
<path d="M11.4854 29.1382C11.6282 28.9523 11.7409 28.756 11.8305 28.5501C11.9207 28.3438 11.987 28.1289 12.0309 27.9054C12.075 27.6829 12.0927 27.4509 12.1182 27.2184C12.1497 26.7521 12.1182 26.258 12.0395 25.7501C11.9613 25.2421 11.8766 24.7391 11.7444 24.2311C11.4854 23.217 11.2023 22.2627 10.9529 21.5348C10.7009 20.8062 10.5289 20.3419 10.5289 20.3419C10.5289 20.3419 10.4605 20.4507 10.3511 20.6519C10.2444 20.8554 10.0997 21.1474 9.93926 21.5076C9.59681 22.2207 9.25701 23.237 9.04212 24.3052C8.95395 24.8493 8.89681 25.4058 8.89681 25.945C8.89089 26.2131 8.91783 26.486 8.96028 26.7476C8.99803 27.0115 9.05109 27.2646 9.12314 27.5074C9.27212 27.995 9.47497 28.4268 9.79661 28.8001C10.1148 29.1727 10.515 29.4723 11.0084 29.6827C11.1999 29.5115 11.3576 29.3293 11.4854 29.1382Z" fill="white"/>
<path d="M19.9309 25.2781C20.0219 25.1334 20.0707 25.0495 20.0707 25.0495C20.0707 25.0495 19.955 25.0495 19.7546 25.0577C19.5486 25.0646 19.2691 25.0863 18.9299 25.1283C18.5897 25.1704 18.194 25.2361 17.7621 25.3346C17.5497 25.3838 17.3207 25.4359 17.1027 25.5061C16.8868 25.5757 16.6629 25.6532 16.4401 25.7426C15.9986 25.9214 15.5393 26.1359 15.1409 26.4008C14.7472 26.6704 14.3839 26.982 14.0868 27.3326C13.9335 27.5061 13.8172 27.6965 13.7162 27.8949C13.6188 28.0912 13.5413 28.2971 13.4837 28.5093C13.4305 28.7228 13.4009 28.9418 13.4009 29.1667C13.4131 29.3953 13.4576 29.6287 13.5323 29.8657C14.0588 29.9528 14.5513 29.9277 15.0001 29.8291C15.4441 29.7279 15.8793 29.5612 16.2631 29.3412C16.4574 29.231 16.6384 29.1071 16.8146 28.9759C16.9044 28.9108 16.9866 28.8408 17.0678 28.7706C17.155 28.7024 17.2411 28.6322 17.3231 28.5591C17.6599 28.2716 17.9584 27.9565 18.224 27.6353C18.506 27.324 18.7631 27.0061 18.978 26.7014C19.0311 26.6267 19.0811 26.5516 19.1323 26.4785C19.1884 26.4053 19.2366 26.3353 19.2901 26.2671C19.3882 26.1287 19.4809 25.9971 19.5603 25.8763C19.7221 25.631 19.8442 25.4224 19.9309 25.2781Z" fill="white"/>
<path d="M14.3865 22.5853C14.8459 22.3528 15.1851 22.0473 15.4471 21.6881C15.7253 21.3383 15.9151 20.9271 16.0429 20.473C16.3204 19.5853 16.3649 18.5249 16.3529 17.5002C16.3504 17.2408 16.338 16.9832 16.3239 16.7312C16.3149 16.4842 16.2984 16.2404 16.2808 16.0049C16.2457 15.5314 16.1986 15.09 16.1559 14.7118C16.0794 13.9669 15.9957 13.4708 15.9957 13.4708C15.9957 13.4708 15.9086 13.5679 15.7608 13.7332C15.6145 13.9018 15.4055 14.1442 15.1796 14.4614C14.9498 14.7759 14.6826 15.1391 14.4306 15.5651C14.1867 15.9898 13.9282 16.4477 13.7188 16.9461C13.5149 17.4471 13.3265 17.9581 13.2133 18.4822C13.1 19.0087 13.0469 19.5326 13.0704 20.0302C13.1351 21.0387 13.5324 21.94 14.3865 22.5853Z" fill="white"/>
<path d="M21.8666 22.0443C22.2117 21.7937 22.5399 21.5408 22.8191 21.2857C23.1091 21.0357 23.3711 20.8049 23.5795 20.5953C23.7885 20.3835 23.9693 20.2141 24.0885 20.0888C24.2072 19.9665 24.2709 19.892 24.2709 19.892C24.2709 19.892 23.8266 19.7933 23.1325 19.7251C22.787 19.6926 22.388 19.6747 21.9472 19.6775C21.5058 19.6806 21.0295 19.7086 20.5584 19.7853C19.6031 19.9245 18.6413 20.2498 17.9044 20.7947C17.547 21.0763 17.247 21.4069 17.035 21.7896C16.8382 22.1796 16.737 22.6259 16.7601 23.1153C17.7501 23.5467 18.6854 23.5082 19.537 23.261C19.9723 23.1384 20.3842 22.96 20.765 22.7461C21.1542 22.5373 21.5295 22.3002 21.8666 22.0443Z" fill="white"/>
<path d="M19.9636 62.502C22.7787 64.8377 26.211 66.4357 29.5785 67.7955C32.3347 68.9102 35.8706 70.7298 39.4716 72.4267C36.2353 73.4347 33.0404 74.2579 30.473 74.6892C30.1363 74.7426 31.8643 76.503 32.1894 76.4045C35.1708 75.5067 38.1967 74.4175 41.1796 73.2143C44.438 74.6951 47.6557 75.9641 50.3062 76.4081C50.6402 76.463 51.6768 74.6892 51.3431 74.632C48.8327 74.2128 45.9164 73.4663 42.879 72.5138C47.8813 70.4138 52.6964 68.0375 56.8594 65.772C61.3788 63.3091 64.7717 59.8148 67.0025 55.1681C69.0701 50.8664 70.528 46.1093 70.7429 41.3313C71.0395 34.7117 68.817 28.2209 65.3703 22.6421C64.3617 21.0092 63.2321 19.3794 61.9807 17.8666C62.0909 17.4472 62.1054 17.0384 62.0317 16.6541C61.948 16.1982 61.7697 15.7588 61.4982 15.3672C60.9741 14.5659 60.1245 13.9208 59.2552 13.4382C58.3801 12.9604 57.4713 12.6592 56.7919 12.4959C56.449 12.4118 56.168 12.3651 55.9723 12.3376C55.8745 12.3255 55.796 12.3169 55.7462 12.3141C55.7007 12.311 55.6741 12.311 55.6741 12.311C55.6741 12.311 55.6831 12.3345 55.7037 12.3796C55.7282 12.4237 55.7578 12.4929 55.8019 12.5786C55.8921 12.7543 56.0198 13.0014 56.1811 13.3035C56.5054 13.9016 56.9462 14.6892 57.468 15.4557C57.7241 15.8439 58.0182 16.2112 58.3199 16.5614C58.4713 16.7337 58.6329 16.8982 58.8023 17.049C58.9652 17.2047 59.136 17.3486 59.3188 17.4747C59.6845 17.7217 60.0688 17.9257 60.5007 18.037C60.8272 18.1166 61.1729 18.1525 61.5431 18.1296C63.9464 20.9715 65.9127 24.2727 67.4113 27.5852C69.3174 31.8046 70.3336 36.4025 70.2234 41.0356C70.1072 46.087 68.4217 51.2152 66.1568 55.7011C64.3933 59.193 61.8262 62.0412 58.5433 64.1644C55.6066 66.062 52.3862 67.4859 49.1843 68.8712C46.7855 69.9112 43.9386 70.9757 41.0512 71.9232C34.8675 69.8571 28.4053 67.0632 23.9255 64.5336C21.5844 63.214 19.4667 61.5952 17.7122 59.5487C15.9608 57.5058 14.6973 55.0799 13.6842 52.602C11.7605 47.9023 10.5412 43.0383 10.8397 37.9321C11.1883 31.9792 13.5265 26.2845 16.7859 21.3457C17.622 20.0815 18.5283 18.8198 19.5138 17.631C19.8679 17.6486 20.2018 17.611 20.5208 17.5339C20.9522 17.4255 21.3344 17.2217 21.7036 16.9723C21.8814 16.8455 22.0549 16.7031 22.2181 16.548C22.3883 16.3982 22.5487 16.2337 22.7006 16.0608C23.0047 15.7098 23.2932 15.3435 23.5538 14.9543C24.0738 14.1878 24.5153 13.3982 24.8373 12.8004C24.9977 12.5014 25.1283 12.251 25.2151 12.0751C25.2591 11.9888 25.2932 11.9222 25.3173 11.8757C25.3343 11.8327 25.3432 11.8086 25.3432 11.8086C25.3432 11.8086 25.3198 11.8086 25.2726 11.8106C25.221 11.8131 25.1465 11.8235 25.0491 11.8351C24.8518 11.8623 24.5681 11.9116 24.2296 11.9935C23.5508 12.1574 22.6416 12.458 21.7653 12.9363C20.8961 13.4192 20.0473 14.0625 19.5222 14.8659C19.2518 15.2598 19.0695 15.6978 18.9902 16.15C18.9151 16.5288 18.9302 16.9296 19.0342 17.3425C16.7338 20.0759 14.831 23.2231 13.3556 26.3747C11.5367 30.2709 10.4363 34.4854 10.2705 38.7899C10.0822 43.734 11.4263 48.4713 13.285 53.0058C14.7765 56.653 16.9108 59.9701 19.9636 62.502Z" fill="white"/>
<path d="M56.1626 71.4838C57.2917 71.2899 58.3313 70.9269 59.0834 70.605C59.8297 70.2828 60.2977 70.0154 60.2977 70.0154C60.2977 70.0154 59.8213 69.824 59.0889 69.5801C58.3554 69.3299 57.3754 69.0195 56.3413 68.7669C55.3079 68.5181 54.2332 68.3322 53.2428 68.3777C52.7462 68.3977 52.2758 68.4838 51.8195 68.6462C51.3601 68.8093 50.9352 69.0599 50.4683 69.4118C50.7679 70.4456 51.6738 71.0975 52.7368 71.3987C53.8064 71.7073 55.0344 71.6834 56.1626 71.4838Z" fill="white"/>
<path d="M50.6077 67.778C51.064 67.6917 51.4858 67.476 51.8711 67.1923C52.6356 66.6162 53.2197 65.736 53.6226 64.8351C54.0269 63.9333 54.2448 63.0055 54.3636 62.3143C54.4211 61.967 54.4538 61.6784 54.4738 61.477C54.4918 61.2768 54.4979 61.1592 54.4979 61.1592C54.4979 61.1592 54.1407 61.3508 53.6167 61.6784C53.092 62.009 52.3977 62.469 51.7154 63.0225C51.0385 63.5762 50.3781 64.2194 49.9138 64.9629C49.4517 65.7102 49.1593 66.5635 49.1868 67.6437C49.6573 67.8445 50.1493 67.8686 50.6077 67.778Z" fill="white"/>
<path d="M63.7715 63.8337C62.7023 63.8694 61.6113 63.9439 60.6819 64.2298C59.7495 64.5184 58.9695 65.0159 58.4595 65.9302C59.0972 66.7945 60.0156 67.1953 61.0476 67.2415C62.0817 67.2919 63.226 66.9921 64.2744 66.5159C65.3232 66.0404 66.2734 65.3957 66.9438 64.8392C67.2803 64.5668 67.5485 64.3151 67.7338 64.1425C67.917 63.9621 68.0158 63.8547 68.0158 63.8547C68.0158 63.8547 67.504 63.8457 66.6907 63.8302C65.8952 63.8257 64.8377 63.8027 63.7715 63.8337Z" fill="white"/>
<path d="M56.6577 64.3427C57.6728 64.3968 58.4945 63.9068 59.0831 63.1619C59.6647 62.416 60.0184 61.4239 60.1575 60.4576C60.3004 59.4861 60.2535 58.5582 60.14 57.8821C60.0886 57.5441 60.0298 57.2712 59.9784 57.0778C59.9282 56.8866 59.8916 56.7792 59.8916 56.7792C59.8916 56.7792 59.8296 56.8425 59.7229 56.9617C59.609 57.0778 59.4522 57.2472 59.27 57.4621C58.8916 57.8874 58.3798 58.4782 57.8722 59.1715C57.3722 59.8668 56.8751 60.6625 56.5916 61.5313C56.3151 62.4039 56.2424 63.3509 56.6577 64.3427Z" fill="white"/>
<path d="M70.6731 59.0437C70.7802 58.9156 70.8849 58.7846 70.9868 58.6535L71.1349 58.4539L71.2537 58.2921C71.4055 58.085 71.5484 57.8739 71.6806 57.6709C71.948 57.2623 72.1811 56.8719 72.3719 56.5348C72.5582 56.1972 72.7045 55.9135 72.8023 55.7117C72.8984 55.5068 72.9425 55.385 72.9425 55.385C72.9425 55.385 72.469 55.5227 71.7337 55.7517C71.0072 55.9827 70.0513 56.3213 69.1215 56.7588C68.8866 56.869 68.6572 56.9835 68.4272 57.1105C68.1831 57.2486 67.9421 57.389 67.7127 57.5313C67.4806 57.6735 67.2508 57.8103 67.0363 57.9597C66.8214 58.1042 66.6072 58.2458 66.4157 58.4023C65.6331 59.0137 65.0525 59.717 64.811 60.7505C65.6712 61.3974 66.6823 61.5076 67.7212 61.1725C68.7568 60.8458 69.8188 60.0654 70.6731 59.0437Z" fill="white"/>
<path d="M64.4417 54.7267C64.1701 53.7669 63.7774 52.9012 63.4552 52.2814C63.2919 51.9702 63.1476 51.7233 63.0313 51.5475C62.9187 51.3735 62.8511 51.2759 62.8511 51.2759C62.8511 51.2759 62.8125 51.3735 62.7495 51.5414C62.6772 51.7122 62.5729 51.9553 62.4623 52.2539C62.3505 52.5531 62.2303 52.9071 62.1211 53.301C62.014 53.6833 61.8948 54.1747 61.8636 54.4653C61.7729 55.1486 61.6627 55.9661 61.7093 56.829C61.7654 57.6896 61.9803 58.6035 62.6597 59.4355C63.6407 59.2072 64.2803 58.4765 64.5599 57.5818C64.6232 57.3576 64.6807 57.128 64.7038 56.89C64.7248 56.65 64.7334 56.4116 64.7183 56.172C64.6983 55.9304 64.6642 55.6924 64.617 55.4618C64.567 55.2133 64.5068 54.9667 64.4417 54.7267Z" fill="white"/>
<path d="M75.2972 47.2265C75.3527 47.0034 75.3733 46.8728 75.3733 46.8728C75.3733 46.8728 74.9394 47.1037 74.251 47.4734C73.5778 47.8461 72.6955 48.3612 71.8618 48.9628C70.9951 49.5524 70.1425 50.2218 69.5888 50.9898C69.4541 51.1833 69.3139 51.3761 69.201 51.5786C69.0874 51.7814 68.992 51.9898 68.9276 52.2071C68.7908 52.6431 68.7541 53.1147 68.8404 53.629C69.8688 53.9292 70.8184 53.6988 71.6714 53.151C71.8849 53.0157 72.0908 52.8592 72.2937 52.69C72.4896 52.5184 72.6894 52.3349 72.8602 52.1296C73.2059 51.7233 73.5265 51.269 73.8102 50.8069C74.4029 49.8898 74.76 48.8853 75.0161 48.1377C75.1412 47.763 75.2366 47.4463 75.2972 47.2265Z" fill="white"/>
<path d="M66.3806 52.7794C66.7894 52.4918 67.0861 52.1296 67.2859 51.7247C67.3876 51.5245 67.4612 51.3106 67.519 51.092C67.5715 50.871 67.6141 50.6461 67.611 50.4081C67.6172 49.4618 67.3451 48.469 66.9261 47.5843C66.4788 46.6959 65.9333 45.9304 65.4994 45.3943C65.279 45.1257 65.0941 44.9149 64.9453 44.7681C64.8025 44.6228 64.7157 44.5416 64.7157 44.5416C64.7157 44.5416 64.6947 44.6402 64.6672 44.8132C64.6288 44.9865 64.5731 45.2334 64.5214 45.5377C64.4082 46.1424 64.3557 46.97 64.298 47.853C64.2804 48.2955 64.298 48.7565 64.3582 49.2163C64.3757 49.3341 64.3933 49.449 64.4082 49.562C64.4233 49.6753 64.4419 49.7879 64.4592 49.901C64.501 50.1277 64.5565 50.3496 64.6288 50.5675C64.9127 51.4373 65.4449 52.2412 66.3806 52.7794Z" fill="white"/>
<path d="M73.0026 40.7276C72.8263 40.92 72.6571 41.1184 72.4936 41.3188C72.3318 41.5192 72.1685 41.7231 72.0046 41.9274C71.6889 42.3398 71.4175 42.7611 71.2187 43.1925C71.1175 43.4074 71.0424 43.6278 70.9777 43.8472C70.903 44.0672 70.8509 44.289 70.8279 44.5157C70.7777 44.967 70.8279 45.4343 71.0132 45.9219C72.0793 46.0229 72.9705 45.6137 73.7054 44.9013C73.8865 44.7239 74.0628 44.5276 74.2267 44.3182C74.3852 44.1057 74.5191 43.8764 74.6528 43.6384C74.915 43.1621 75.1379 42.6464 75.3263 42.1233C75.4279 41.8664 75.493 41.5992 75.5557 41.3368C75.6173 41.0778 75.672 40.8208 75.7195 40.5712C75.8116 40.0729 75.8924 39.607 75.9218 39.2055C75.9689 38.4017 75.9538 37.8694 75.9538 37.8694C75.9538 37.8694 75.5618 38.2 75.0101 38.7251C74.475 39.2517 73.6995 39.9566 73.0026 40.7276Z" fill="white"/>
<path d="M69.1508 44.1563C69.2094 43.9404 69.2465 43.7184 69.258 43.4957C69.2641 43.269 69.2314 43.0402 69.1894 42.8102C69.1022 42.3529 68.9388 41.8969 68.7276 41.462C68.6745 41.3539 68.6167 41.2461 68.5612 41.1404C68.4976 41.0347 68.4269 40.931 68.3584 40.8277C68.2186 40.622 68.0667 40.4231 67.9139 40.2357C67.6082 39.8565 67.2833 39.5153 66.9665 39.2186C66.8153 39.0704 66.6508 38.9326 66.4906 38.8063C66.3326 38.683 66.1804 38.5669 66.0402 38.4657C65.4747 38.0598 65.0788 37.8394 65.0788 37.8394C65.0788 37.8394 65.0728 38.2267 65.1343 38.8139C65.159 38.9616 65.1655 39.12 65.1741 39.2912C65.189 39.463 65.2041 39.6431 65.2269 39.8314C65.2702 40.2082 65.3549 40.6163 65.4359 41.0357C65.5082 41.4565 65.6124 41.89 65.7637 42.3153C65.8377 42.5257 65.9239 42.7375 66.0226 42.9443C66.1098 43.1504 66.2049 43.3527 66.3188 43.5457C66.7641 44.322 67.4435 44.9996 68.4625 45.3498C68.8112 44.9939 69.0316 44.5867 69.1508 44.1563Z" fill="white"/>
<path d="M71.06 35.2768C70.9528 35.7432 70.9233 36.1983 70.9922 36.647C71.0249 36.8705 71.0971 37.0895 71.1737 37.3093C71.2484 37.5287 71.3561 37.7473 71.4929 37.9622C72.5529 37.8117 73.372 37.2056 73.8749 36.333C74.1386 35.8977 74.3394 35.3991 74.5018 34.8691C74.641 34.3405 74.7133 33.7854 74.7602 33.2293C74.7808 32.9534 74.7988 32.6748 74.8014 32.4048C74.7925 32.1366 74.7784 31.8746 74.7602 31.6232C74.7222 31.1152 74.6676 30.6462 74.6086 30.2464C74.4471 29.4609 74.2955 28.9523 74.2955 28.9523C74.2955 28.9523 74.0043 29.3707 73.6014 30.0185C73.4045 30.3376 73.1716 30.7174 72.9161 31.1352C72.6661 31.5521 72.4102 31.9993 72.1722 32.4599C71.9457 32.9162 71.6953 33.3936 71.4984 33.866C71.2953 34.3405 71.1526 34.8123 71.06 35.2768Z" fill="white"/>
<path d="M69.0294 35.1406C68.8382 34.7222 68.5501 34.3275 68.2335 33.9657C68.0731 33.7853 67.9027 33.6116 67.7274 33.4488C67.5511 33.2845 67.3451 33.1367 67.1527 32.9935C66.3572 32.4288 65.5586 32.0239 64.8909 31.7839C64.2455 31.5404 63.8037 31.4357 63.8037 31.4357C63.8037 31.4357 63.8964 31.8045 64.1082 32.3451C64.1994 32.6206 64.3037 32.9447 64.4509 33.288C64.5186 33.4592 64.5996 33.6382 64.6864 33.818C64.7717 34.0004 64.8437 34.1906 64.939 34.3771C65.1141 34.7537 65.3347 35.132 65.5876 35.4982C65.8141 35.8655 66.0868 36.2182 66.4072 36.5339C67.0656 37.1565 67.8376 37.649 68.9133 37.7508C69.0435 37.5388 69.1458 37.3233 69.2164 37.1059C69.288 36.8849 69.3025 36.6627 69.3086 36.4431C69.3086 36.0022 69.2037 35.5604 69.0294 35.1406Z" fill="white"/>
<path d="M70.4907 20.8439C70.4907 20.8439 70.316 21.3082 70.0658 22.0362C69.8154 22.7657 69.5348 23.7184 69.2734 24.7345C69.1456 25.2404 69.0585 25.7455 68.9807 26.2521C68.9042 26.7611 68.867 27.2556 68.9042 27.7209C68.9276 27.9529 68.9452 28.1854 68.9893 28.4074C69.0354 28.6323 69.0995 28.8462 69.1897 29.0521C69.2789 29.256 69.3927 29.4529 69.5323 29.6403C69.6632 29.829 69.8215 30.0129 70.0083 30.1843C70.5074 29.9743 70.9056 29.6743 71.2221 29.3025C71.5452 28.9298 71.7458 28.4966 71.8936 28.0094C71.9687 27.767 72.0223 27.5131 72.0644 27.25C72.0999 26.9876 72.1291 26.7149 72.1234 26.4484C72.1205 25.9078 72.0644 25.3488 71.9779 24.8072C71.7632 23.738 71.4207 22.72 71.0809 22.0117C70.9205 21.651 70.7748 21.3564 70.6701 21.1519C70.5599 20.9531 70.4907 20.8439 70.4907 20.8439Z" fill="white"/>
<path d="M67.3042 28.3962C67.2021 28.1989 67.0858 28.007 66.9315 27.8356C66.6334 27.4854 66.2731 27.1717 65.8774 26.9028C65.4801 26.6348 65.0211 26.4234 64.5819 26.2446C64.3578 26.1562 64.135 26.0762 63.9166 26.0074C63.6997 25.9374 63.4697 25.8823 63.2554 25.8352C62.827 25.7366 62.4297 25.6727 62.0905 25.6309C61.7509 25.5887 61.4711 25.5666 61.2678 25.5611C61.0625 25.5507 60.9507 25.5521 60.9507 25.5521C60.9507 25.5521 60.9972 25.6354 61.0901 25.7785C61.1772 25.9244 61.2944 26.1334 61.4593 26.3772C61.5403 26.4991 61.6284 26.6303 61.7297 26.7676C61.7819 26.8358 61.8344 26.9072 61.8891 26.9785C61.9362 27.053 61.9888 27.1279 62.0433 27.204C62.2578 27.5074 62.5107 27.8252 62.7964 28.1372C63.0593 28.4595 63.3595 28.7736 63.6931 29.0611C63.7772 29.1338 63.867 29.204 63.9491 29.2721C64.0327 29.3442 64.117 29.4097 64.2046 29.4785C64.3791 29.6087 64.5623 29.7313 64.7562 29.8395C65.138 30.0619 65.5758 30.2313 66.0227 30.3321C66.4697 30.4313 66.958 30.4552 67.4891 30.3656C67.5627 30.1303 67.6083 29.8966 67.6168 29.6672C67.6168 29.4434 67.5889 29.224 67.5362 29.0119C67.4829 28.7985 67.4019 28.5932 67.3042 28.3962Z" fill="white"/>
<path d="M66.6336 23.0852C67.4893 22.4415 67.885 21.5407 67.9477 20.5332C67.9742 20.0348 67.9171 19.5107 67.8069 18.9832C67.6936 18.4593 67.5097 17.9487 67.3009 17.4472C67.092 16.9501 66.8334 16.4913 66.586 16.0658C66.3395 15.6415 66.0671 15.2758 65.842 14.9621C65.6156 14.6462 65.4066 14.4031 65.2568 14.2333C65.1111 14.067 65.0244 13.9727 65.0244 13.9727C65.0244 13.9727 64.9422 14.4703 64.8642 15.2133C64.8199 15.5919 64.7744 16.0338 64.7389 16.5048C64.7213 16.7421 64.7068 16.9848 64.6983 17.2338C64.6832 17.4848 64.6701 17.7427 64.6673 18.0017C64.6552 19.0252 64.7007 20.0854 64.9744 20.9762C65.1056 21.4291 65.2934 21.8372 65.5701 22.1889C65.8315 22.5489 66.1746 22.8544 66.6336 23.0852Z" fill="white"/>
<path d="M63.1156 21.2983C62.3801 20.7512 61.4187 20.4256 60.4609 20.2852C59.9899 20.2081 59.514 20.1816 59.0725 20.1775C58.6327 20.1765 58.2329 20.193 57.8872 20.2267C57.1933 20.2979 56.7505 20.3926 56.7505 20.3926C56.7505 20.3926 56.8121 20.4661 56.9313 20.5909C57.0507 20.7161 57.2329 20.884 57.4368 21.0969C57.6493 21.3073 57.9154 21.5383 58.2005 21.7877C58.4799 22.0407 58.808 22.2956 59.1503 22.5463C59.4905 22.8008 59.8652 23.0391 60.2564 23.2461C60.6403 23.4624 61.0474 23.6424 61.4829 23.7616C62.3346 24.0116 63.2668 24.0508 64.2593 23.6169C64.2828 23.1269 64.1848 22.681 63.9864 22.2901C63.7744 21.9085 63.4728 21.5779 63.1156 21.2983Z" fill="white"/>
<path d="M40.5033 0.408981C26.873 0.408981 13.892 7.56369 6.62666 19.0802C4.87625 21.8492 3.46563 24.8464 2.43318 27.9884C-0.908461 38.1621 -0.0896849 49.0271 4.74033 58.5806C9.56912 68.1349 17.8316 75.2359 28.0037 78.5775C32.0694 79.9129 36.2796 80.591 40.5178 80.591C57.8668 80.591 73.1648 69.5045 78.5848 53.0034C79.6164 49.865 80.2577 46.616 80.4903 43.3456C81.8111 24.9968 70.5152 8.1694 53.0207 2.42225C48.9535 1.08591 44.7429 0.408981 40.5033 0.408981ZM40.5174 81C36.2349 81 31.9818 80.3161 27.8761 78.9673C17.5989 75.5914 9.25258 68.4173 4.37441 58.7661C-0.504788 49.1146 -1.33254 38.1387 2.04318 27.8597C3.08563 24.6872 4.51135 21.6596 6.27993 18.8631C13.6195 7.22778 26.7332 0 40.5033 0C44.7866 0 49.0413 0.68367 53.1482 2.03286C70.8217 7.83879 82.2328 24.8394 80.8983 43.376C80.6634 46.6791 80.0162 49.962 78.9742 53.1326C73.4987 69.8004 58.0446 81 40.5174 81Z" fill="white"/>
<path d="M61.1128 38.5462H56.0001V35.1216C56.0001 34.1258 55.9434 33.5064 55.83 33.2635C55.7248 33.0125 55.486 32.887 55.1135 32.887C54.6925 32.887 54.4254 33.0368 54.312 33.3364C54.1987 33.6359 54.142 34.2836 54.142 35.2795V44.4119C54.142 45.3672 54.1987 45.9906 54.312 46.2821C54.4254 46.5735 54.6804 46.7193 55.0771 46.7193C55.4576 46.7193 55.7045 46.5735 55.8179 46.2821C55.9393 45.9906 56.0001 45.3065 56.0001 44.2297V41.7644H61.1128V42.5295C61.1128 44.5617 60.967 46.0028 60.6756 46.8529C60.3922 47.703 59.7567 48.4478 58.7689 49.0874C57.7893 49.727 56.5789 50.0468 55.1378 50.0468C53.64 50.0468 52.4054 49.7756 51.4338 49.2331C50.4623 48.6907 49.8187 47.9418 49.5029 46.9864C49.1872 46.023 49.0293 44.5778 49.0293 42.651V36.9068C49.0293 35.4899 49.0779 34.4294 49.175 33.725C49.2722 33.0125 49.5596 32.3284 50.0373 31.6726C50.523 31.0168 51.191 30.5027 52.0411 30.1303C52.8992 29.7498 53.8829 29.5595 54.9921 29.5595C56.498 29.5595 57.7407 29.851 58.7204 30.4339C59.7 31.0168 60.3436 31.7455 60.6513 32.6199C60.9589 33.4862 61.1128 34.8382 61.1128 36.676V38.5462Z" fill="white"/>
<path d="M47.3413 38.5462H42.2286V35.1216C42.2286 34.1258 42.1719 33.5064 42.0586 33.2635C41.9533 33.0125 41.7145 32.887 41.342 32.887C40.9211 32.887 40.6539 33.0368 40.5405 33.3364C40.4272 33.6359 40.3705 34.2836 40.3705 35.2795V44.4119C40.3705 45.3672 40.4272 45.9906 40.5405 46.2821C40.6539 46.5735 40.9089 46.7193 41.3056 46.7193C41.6861 46.7193 41.9331 46.5735 42.0464 46.2821C42.1679 45.9906 42.2286 45.3065 42.2286 44.2297V41.7644H47.3413V42.5295C47.3413 44.5617 47.1955 46.0028 46.9041 46.8529C46.6207 47.703 45.9852 48.4478 44.9974 49.0874C44.0178 49.727 42.8074 50.0468 41.3663 50.0468C39.8686 50.0468 38.6339 49.7756 37.6624 49.2331C36.6908 48.6907 36.0472 47.9418 35.7314 46.9864C35.4157 46.023 35.2578 44.5778 35.2578 42.651V36.9068C35.2578 35.4899 35.3064 34.4294 35.4035 33.725C35.5007 33.0125 35.7881 32.3284 36.2658 31.6726C36.7515 31.0168 37.4195 30.5027 38.2696 30.1303C39.1278 29.7498 40.1114 29.5595 41.2206 29.5595C42.7265 29.5595 43.9692 29.851 44.9489 30.4339C45.9285 31.0168 46.5721 31.7455 46.8798 32.6199C47.1874 33.4862 47.3413 34.8382 47.3413 36.676V38.5462Z" fill="white"/>
<path d="M33.5698 38.5462H28.4571V35.1215C28.4571 34.1257 28.4004 33.5064 28.2871 33.2635C28.1818 33.0125 27.943 32.887 27.5706 32.887C27.1496 32.887 26.8824 33.0368 26.769 33.3364C26.6557 33.6359 26.599 34.2836 26.599 35.2794V44.4118C26.599 45.3672 26.6557 45.9906 26.769 46.2821C26.8824 46.5735 27.1374 46.7192 27.5341 46.7192C27.9146 46.7192 28.1616 46.5735 28.2749 46.2821C28.3964 45.9906 28.4571 45.3065 28.4571 44.2297V41.7644H33.5698V42.5295C33.5698 44.5616 33.4241 46.0027 33.1326 46.8528C32.8492 47.7029 32.2137 48.4478 31.226 49.0874C30.2463 49.727 29.036 50.0467 27.5949 50.0467C26.0971 50.0467 24.8624 49.7755 23.8909 49.2331C22.9193 48.6906 22.2757 47.9418 21.96 46.9864C21.6442 46.023 21.4863 44.5778 21.4863 42.6509V36.9067C21.4863 35.4899 21.5349 34.4293 21.6321 33.725C21.7292 33.0125 22.0166 32.3284 22.4943 31.6726C22.9801 31.0168 23.648 30.5027 24.4981 30.1303C25.3563 29.7498 26.34 29.5595 27.4491 29.5595C28.955 29.5595 30.1978 29.851 31.1774 30.4339C32.157 31.0168 32.8007 31.7455 33.1083 32.6198C33.416 33.4861 33.5698 34.8382 33.5698 36.676V38.5462Z" fill="white"/>
<path d="M49.5705 55.9933V55.6089L50.4687 54.7772C50.5451 54.7033 50.6091 54.6368 50.6609 54.5777C50.7135 54.5185 50.7533 54.4606 50.7804 54.4039C50.8075 54.3464 50.8211 54.2844 50.8211 54.2179C50.8211 54.144 50.8042 54.0803 50.7705 54.0269C50.7369 53.9727 50.6909 53.9312 50.6325 53.9025C50.5742 53.8729 50.5081 53.8581 50.4342 53.8581C50.357 53.8581 50.2896 53.8738 50.2321 53.905C50.1746 53.9362 50.1303 53.9809 50.0991 54.0393C50.0679 54.0976 50.0523 54.167 50.0523 54.2475H49.5459C49.5459 54.0824 49.5833 53.939 49.658 53.8175C49.7328 53.6959 49.8375 53.6019 49.9722 53.5354C50.1069 53.4688 50.2621 53.4356 50.4379 53.4356C50.6186 53.4356 50.7759 53.4676 50.9098 53.5317C51.0445 53.5949 51.1492 53.6828 51.2239 53.7953C51.2987 53.9078 51.336 54.0368 51.336 54.1822C51.336 54.2774 51.3171 54.3715 51.2794 54.4643C51.2424 54.5571 51.1763 54.6602 51.081 54.7735C50.9857 54.8861 50.8514 55.0212 50.6781 55.1789L50.3098 55.5399V55.5571H51.3693V55.9933H49.5705Z" fill="white"/>
<path d="M48.9708 53.4701V55.9932H48.4373V53.9764H48.4225L47.8447 54.3386V53.8655L48.4694 53.4701H48.9708Z" fill="white"/>
<path d="M46.4735 56.0487C46.2616 56.0479 46.0792 55.9957 45.9265 55.8922C45.7745 55.7887 45.6575 55.6388 45.5753 55.4425C45.494 55.2462 45.4538 55.0101 45.4546 54.7341C45.4546 54.459 45.4953 54.2245 45.5766 54.0306C45.6587 53.8368 45.7758 53.6894 45.9277 53.5883C46.0805 53.4865 46.2624 53.4356 46.4735 53.4356C46.6846 53.4356 46.8661 53.4865 47.018 53.5883C47.1708 53.6902 47.2883 53.838 47.3704 54.0319C47.4525 54.2249 47.4932 54.459 47.4924 54.7341C47.4924 55.0109 47.4513 55.2475 47.3692 55.4438C47.2879 55.6401 47.1712 55.79 47.0193 55.8935C46.8673 55.9969 46.6854 56.0487 46.4735 56.0487ZM46.4735 55.6064C46.618 55.6064 46.7335 55.5337 46.8197 55.3883C46.9059 55.2429 46.9486 55.0249 46.9478 54.7341C46.9478 54.5427 46.9281 54.3834 46.8887 54.2561C46.8501 54.1288 46.7951 54.0331 46.7236 53.969C46.653 53.905 46.5696 53.8729 46.4735 53.8729C46.3298 53.8729 46.2148 53.9448 46.1285 54.0885C46.0423 54.2323 45.9987 54.4475 45.9979 54.7341C45.9979 54.928 46.0172 55.0898 46.0558 55.2195C46.0953 55.3485 46.1507 55.4454 46.2222 55.5103C46.2936 55.5744 46.3774 55.6064 46.4735 55.6064Z" fill="white"/>
<path d="M43.2991 55.9933V55.6089L44.1972 54.7772C44.2736 54.7033 44.3377 54.6368 44.3894 54.5777C44.442 54.5185 44.4818 54.4606 44.5089 54.4039C44.536 54.3464 44.5496 54.2844 44.5496 54.2179C44.5496 54.144 44.5327 54.0803 44.4991 54.0269C44.4654 53.9727 44.4194 53.9312 44.3611 53.9025C44.3027 53.8729 44.2366 53.8581 44.1627 53.8581C44.0855 53.8581 44.0181 53.8738 43.9607 53.905C43.9032 53.9362 43.8588 53.9809 43.8276 54.0393C43.7964 54.0976 43.7808 54.167 43.7808 54.2475H43.2744C43.2744 54.0824 43.3118 53.939 43.3865 53.8175C43.4613 53.6959 43.566 53.6019 43.7007 53.5354C43.8354 53.4688 43.9906 53.4356 44.1664 53.4356C44.3471 53.4356 44.5044 53.4676 44.6383 53.5317C44.773 53.5949 44.8777 53.6828 44.9524 53.7953C45.0272 53.9078 45.0646 54.0368 45.0646 54.1822C45.0646 54.2774 45.0457 54.3715 45.0079 54.4643C44.9709 54.5571 44.9048 54.6602 44.8095 54.7735C44.7142 54.8861 44.58 55.0212 44.4066 55.1789L44.0383 55.5399V55.5571H45.0978V55.9933H43.2991Z" fill="white"/>
<path d="M40.3867 55.9932V53.4701H42.0869V53.9099H40.9202V54.5111H41.9994V54.951H40.9202V55.5534H42.0918V55.9932H40.3867Z" fill="white"/>
<path d="M40.004 54.3534H39.4644C39.4545 54.2836 39.4344 54.2216 39.404 54.1674C39.3736 54.1124 39.3346 54.0655 39.287 54.0269C39.2393 53.9883 39.1843 53.9588 39.1219 53.9382C39.0603 53.9177 38.9934 53.9074 38.9211 53.9074C38.7905 53.9074 38.6767 53.9399 38.5798 54.0048C38.4829 54.0688 38.4077 54.1625 38.3543 54.2857C38.301 54.408 38.2743 54.5567 38.2743 54.7317C38.2743 54.9115 38.301 55.0627 38.3543 55.185C38.4086 55.3074 38.4841 55.3998 38.581 55.4622C38.678 55.5247 38.7901 55.5559 38.9174 55.5559C38.9888 55.5559 39.055 55.5464 39.1157 55.5275C39.1773 55.5087 39.232 55.4811 39.2796 55.445C39.3272 55.408 39.3667 55.3633 39.3979 55.3107C39.4299 55.2581 39.4521 55.1982 39.4644 55.1308L40.004 55.1333C39.9901 55.2491 39.9552 55.3608 39.8993 55.4684C39.8443 55.5752 39.7699 55.6709 39.6763 55.7555C39.5835 55.8392 39.4726 55.9058 39.3437 55.9551C39.2155 56.0035 39.0706 56.0277 38.9088 56.0277C38.6837 56.0277 38.4825 55.9768 38.3051 55.875C38.1285 55.7731 37.9888 55.6257 37.8862 55.4327C37.7843 55.2397 37.7334 55.006 37.7334 54.7317C37.7334 54.4565 37.7851 54.2224 37.8886 54.0294C37.9921 53.8364 38.1326 53.6894 38.31 53.5883C38.4874 53.4865 38.687 53.4356 38.9088 53.4356C39.055 53.4356 39.1905 53.4561 39.3153 53.4972C39.441 53.5382 39.5523 53.5982 39.6492 53.677C39.7461 53.7551 39.825 53.8508 39.8858 53.9641C39.9474 54.0774 39.9868 54.2072 40.004 54.3534Z" fill="white"/>
<path d="M37.337 53.4701V55.9932H36.8763L35.7785 54.4052H35.76V55.9932H35.2266V53.4701H35.6947L36.7838 55.0569H36.806V53.4701H37.337Z" fill="white"/>
<path d="M34.7874 53.4701V55.9932H34.2539V53.4701H34.7874Z" fill="white"/>
<path d="M33.3495 54.1957C33.3397 54.0963 33.2974 54.0191 33.2226 53.9641C33.1479 53.9091 33.0464 53.8816 32.9183 53.8816C32.8312 53.8816 32.7577 53.8939 32.6978 53.9185C32.6378 53.9423 32.5918 53.9756 32.5598 54.0183C32.5286 54.061 32.513 54.1095 32.513 54.1637C32.5113 54.2089 32.5208 54.2483 32.5413 54.282C32.5627 54.3156 32.5918 54.3448 32.6288 54.3694C32.6657 54.3933 32.7084 54.4142 32.7569 54.4323C32.8054 54.4495 32.8571 54.4643 32.9121 54.4766L33.1388 54.5308C33.2489 54.5555 33.3499 54.5883 33.4419 54.6294C33.5339 54.6705 33.6136 54.721 33.6809 54.7809C33.7483 54.8409 33.8004 54.9115 33.8374 54.9929C33.8752 55.0742 33.8945 55.1674 33.8953 55.2725C33.8945 55.4269 33.8551 55.5608 33.777 55.6742C33.6998 55.7867 33.5881 55.8742 33.4419 55.9366C33.2965 55.9982 33.1212 56.029 32.9158 56.029C32.7121 56.029 32.5347 55.9978 32.3836 55.9354C32.2333 55.8729 32.1158 55.7805 32.0312 55.6581C31.9475 55.5349 31.9035 55.3826 31.8994 55.2011H32.4156C32.4214 55.2857 32.4456 55.3563 32.4883 55.413C32.5319 55.4688 32.5898 55.5111 32.662 55.5399C32.7351 55.5678 32.8177 55.5818 32.9097 55.5818C33 55.5818 33.0785 55.5686 33.145 55.5423C33.2123 55.5161 33.2645 55.4795 33.3015 55.4327C33.3384 55.3859 33.3569 55.3321 33.3569 55.2713C33.3569 55.2146 33.3401 55.167 33.3064 55.1284C33.2735 55.0898 33.2251 55.0569 33.161 55.0298C33.0978 55.0027 33.0202 54.9781 32.9282 54.9559L32.6534 54.8869C32.4407 54.8352 32.2727 54.7542 32.1495 54.6442C32.0263 54.5341 31.9651 54.3859 31.9659 54.1994C31.9651 54.0467 32.0058 53.9132 32.0879 53.799C32.1709 53.6848 32.2846 53.5957 32.4292 53.5317C32.5737 53.4676 32.738 53.4356 32.922 53.4356C33.1093 53.4356 33.2727 53.4676 33.4123 53.5317C33.5528 53.5957 33.662 53.6848 33.7401 53.799C33.8181 53.9132 33.8583 54.0454 33.8608 54.1957H33.3495Z" fill="white"/>
<path d="M46.1994 14.4958C46.158 15.3689 45.2141 16.5101 44.4276 16.6697C44.1661 15.6852 45.2039 14.073 46.1994 13.884C46.1994 13.884 46.2474 14.1622 46.1994 14.4958ZM40.9261 18.0458C40.6484 18.5393 40.2592 18.8658 40.2592 18.8658C38.7757 17.8283 38.7984 14.6387 40.2592 13.6068C41.3512 14.4111 41.8343 16.8167 40.9261 18.0458ZM36.0978 16.6697C35.1002 16.4852 34.0663 14.8669 34.3259 13.884C35.3175 14.0724 36.3494 15.6909 36.0978 16.6697ZM48.8317 10.4875C43.901 13.5332 43.3449 13.3407 40.2592 8.47969C36.6778 13.9962 36.1908 13.1758 30.9775 10.0844C32.4186 13.6275 33.6255 17.3648 33.6804 20.7969H46.8449C46.7872 17.2324 47.8994 13.5434 49.5478 10.0844L48.8317 10.4875Z" fill="#F6D809"/>
<path d="M39.4664 8.62878C39.4519 7.62551 41.0276 7.6251 41.0129 8.62878C41.0276 9.63204 39.4517 9.63163 39.4664 8.62878Z" fill="#F6D809"/>
<path d="M30.1603 10.106C30.1448 9.04863 31.8054 9.04863 31.7899 10.106C31.8052 11.1633 30.1446 11.1631 30.1603 10.106Z" fill="#F6D809"/>
<path d="M48.6842 10.1748C48.6697 9.17219 50.2452 9.17137 50.2301 10.1748C50.2452 11.1783 48.6695 11.1775 48.6842 10.1748Z" fill="#F6D809"/>
<path d="M47.4136 22.7655H33.1279C32.7897 22.7655 32.5156 22.4915 32.5156 22.1533C32.5156 21.8151 32.7897 21.5411 33.1279 21.5411H47.4136C47.7518 21.5411 48.0259 21.8151 48.0259 22.1533C48.0259 22.4915 47.7518 22.7655 47.4136 22.7655Z" fill="#F6D809"/>
</svg>
